<svg width="35" height="36" viewBox="0 0 35 36" fill="none" xmlns="http://www.w3.org/2000/svg">
  <path fill-rule="evenodd" clip-rule="evenodd"
        d="M29.8383 4.3576L29.0864 8.60558L33.3506 9.3546L29.8383 4.3576ZM30.6149 3.71106L34.226 8.84872C34.458 9.17877 34.5467 9.57865 34.4766 9.97502L30.1706 34.3014C30.0259 35.1203 29.2397 35.6684 28.4183 35.5242L27.2267 35.3147V35.3127L27.0819 35.2876C26.8076 35.2413 26.623 34.9811 26.6699 34.7078C26.7158 34.4431 26.9619 34.2673 27.2267 34.2984V34.2949L27.2438 34.2979C27.2468 34.2984 27.2493 34.2969 27.2524 34.2974L27.7496 34.3823C27.7537 34.3828 27.7572 34.3846 27.7606 34.3863C27.7636 34.3877 27.7665 34.3891 27.7698 34.3898L28.5932 34.5345C28.8671 34.5827 29.1293 34.3999 29.1777 34.1271L33.3808 10.3799L28.9114 9.59523C28.3633 9.49878 27.9967 8.97682 28.093 8.43126L28.8812 3.97882L11.9965 1.01236C11.7227 0.96464 11.4604 1.1475 11.412 1.42028L11.2492 2.34162H11.2476L11.2265 2.4652C11.1801 2.73898 10.9199 2.92285 10.645 2.87663C10.3858 2.83293 10.2134 2.59782 10.2335 2.34162H10.225L10.232 2.30042C10.2323 2.29987 10.2323 2.29931 10.2322 2.29875C10.2321 2.2983 10.232 2.29786 10.232 2.29741L10.3162 1.80208C10.317 1.79876 10.3185 1.79577 10.32 1.79281C10.3216 1.78949 10.3233 1.7862 10.3238 1.78249L10.4191 1.24546C10.5638 0.427112 11.35 -0.121468 12.1715 0.0232124L29.6381 3.09114C30.036 3.16097 30.3834 3.38151 30.6149 3.71106ZM24.201 34.9953H2.01283C1.73497 34.9953 1.50855 34.7698 1.50855 34.493V5.35594C1.50855 5.07864 1.73497 4.85358 2.01283 4.85358H19.1582V9.37484C19.1582 9.92895 19.6106 10.3796 20.1668 10.3796H24.7053V34.493C24.7053 34.7698 24.4788 34.9953 24.201 34.9953ZM20.1668 5.06156L24.4965 9.37484H20.1668V5.06156ZM25.2706 8.72529L20.8188 4.29043C20.5334 4.00559 20.1532 3.84885 19.7487 3.84885H2.01283C1.17876 3.84885 0.5 4.52503 0.5 5.35594V34.493C0.5 35.3239 1.17876 36.0001 2.01283 36.0001H24.201C25.0351 36.0001 25.7138 35.3239 25.7138 34.493V9.7913C25.7138 9.38841 25.5565 9.00963 25.2706 8.72529ZM4.53421 9.87721H3.52566V8.87248H4.53421V9.87721ZM13.6112 10.8819V11.8867H3.52566V10.8819H13.6112ZM9.57697 17.915H4.53421V15.9056H9.57697V17.915ZM10.5855 15.9056V17.915H21.6796V15.9056H10.5855ZM21.6796 29.9717H19.6625V27.9623H21.6796V29.9717ZM12.6026 20.9292H10.5855V18.9197H12.6026V20.9292ZM15.6283 20.9292H13.6112V18.9197H15.6283V20.9292ZM18.654 20.9292H16.6368V18.9197H18.654V20.9292ZM21.6796 20.9292H19.6625V18.9197H21.6796V20.9292ZM21.6796 23.9434H19.6625V21.9339H21.6796V23.9434ZM21.6796 26.9575H19.6625V24.9481H21.6796V26.9575ZM18.654 26.9575H16.6368V24.9481H18.654V26.9575ZM18.654 29.9717H16.6368V27.9623H18.654V29.9717ZM15.6283 29.9717H13.6112V27.9623H15.6283V29.9717ZM12.6026 29.9717H10.5855V27.9623H12.6026V29.9717ZM12.6026 26.9575H10.5855V24.9481H12.6026V26.9575ZM15.6283 26.9575H13.6112V24.9481H15.6283V26.9575ZM18.654 23.9434H16.6368V21.9339H18.654V23.9434ZM15.6283 23.9434H13.6112V21.9339H15.6283V23.9434ZM12.6026 23.9434H10.5855V21.9339H12.6026V23.9434ZM9.57697 29.9717H4.53421V18.9197H9.57697V29.9717ZM22.6882 30.9764H3.52566V14.9008H22.6882V30.9764ZM6.04704 21.9339H8.06415V20.9292H6.04704V21.9339ZM8.06415 24.9481H6.04704V23.9434H8.06415V24.9481ZM6.04704 27.9623H8.06415V26.9575H6.04704V27.9623ZM5.54276 9.87721H6.55132V8.87248H5.54276V9.87721ZM8.56842 9.87721H7.55987V8.87248H8.56842V9.87721Z"
        fill="#5E92FC"/>
</svg>
