<svg viewBox="0 0 40 40" fill="none" xmlns="http://www.w3.org/2000/svg">
  <path fill-rule="evenodd" clip-rule="evenodd"
        d="M13.5 13C14.3284 13 15 12.3284 15 11.5C15 10.6716 14.3284 10 13.5 10C12.6716 10 12 10.6716 12 11.5C12 12.3284 12.6716 13 13.5 13ZM13.5 14C14.8807 14 16 12.8807 16 11.5C16 10.1193 14.8807 9 13.5 9C12.1193 9 11 10.1193 11 11.5C11 12.8807 12.1193 14 13.5 14ZM9 19.5C9 17.0147 11.0147 15 13.5 15C15.2515 15 16.7693 16.0006 17.5128 17.4614C18.1121 17.166 18.7867 17 19.5 17C20.2209 17 20.9022 17.1695 21.5062 17.4709L21.5229 17.3923C22.2788 15.9692 23.7761 15 25.4999 15C27.9851 15 29.9999 17.0147 29.9999 19.5V22.5C29.9999 23.3284 29.3283 24 28.4999 24H27.9999V28.5C27.9999 29.3284 27.3283 30 26.4999 30H24.4999C23.6714 30 22.9999 29.3284 22.9999 28.5V25.9147C22.8435 25.9699 22.6753 26 22.5 26H22V30.5C22 31.3284 21.3284 32 20.5 32H18.5C17.6716 32 17 31.3284 17 30.5V26H16.5C16.3247 26 16.1564 25.9699 16 25.9146V28.5C16 29.3284 15.3284 30 14.5 30H12.5C11.6716 30 11 29.3284 11 28.5V24H10.5C9.67157 24 9 23.3284 9 22.5V19.5ZM23 24H22.9999V24.5122C22.9934 24.7827 22.7721 25 22.5 25H22H21.5C21.2236 25 21 25.2239 21 25.5V26V30.5C21 30.7761 20.7761 31 20.5 31H18.5C18.2239 31 18 30.7761 18 30.5V26V25.6289V25.5C18 25.2254 17.7786 25.0025 17.5046 25H17.1953H17H16.5C16.2239 25 16 24.7761 16 24.5V24V21.5C16 19.567 17.567 18 19.5 18C21.433 18 23 19.567 23 21.5V24ZM23.9999 24.5212V28.5C23.9999 28.7761 24.2237 29 24.4999 29H26.4999C26.776 29 26.9999 28.7761 26.9999 28.5V24V23.5C26.9999 23.2254 27.2212 23.0025 27.4952 23H27.4999H27.9999H28.4999C28.776 23 28.9999 22.7761 28.9999 22.5V19.5C28.9999 17.567 27.4328 16 25.4999 16C24.1029 16 22.8971 16.8184 22.3358 18.0019L22.3174 17.9909C23.3433 18.8157 24 20.0811 24 21.5V24.5C24 24.5071 24 24.5142 23.9999 24.5212ZM13.5 16C14.8981 16 16.1047 16.8197 16.6654 18.0048C15.6493 18.8298 15 20.0891 15 21.5V23.5V23.5V24V24.5V28.5C15 28.7761 14.7761 29 14.5 29H12.5C12.2239 29 12 28.7761 12 28.5V24V23.6289V23.5C12 23.2254 11.7786 23.0025 11.5046 23H11.1953H11H10.5C10.2239 23 10 22.7761 10 22.5V19.5C10 17.567 11.567 16 13.5 16ZM21 13.5C21 14.3284 20.3284 15 19.5 15C18.6716 15 18 14.3284 18 13.5C18 12.6716 18.6716 12 19.5 12C20.3284 12 21 12.6716 21 13.5ZM22 13.5C22 14.8807 20.8807 16 19.5 16C18.1193 16 17 14.8807 17 13.5C17 12.1193 18.1193 11 19.5 11C20.8807 11 22 12.1193 22 13.5ZM26.9999 11.5C26.9999 12.3284 26.3283 13 25.4999 13C24.6714 13 23.9999 12.3284 23.9999 11.5C23.9999 10.6716 24.6714 10 25.4999 10C26.3283 10 26.9999 10.6716 26.9999 11.5ZM27.9999 11.5C27.9999 12.8807 26.8806 14 25.4999 14C24.1191 14 22.9999 12.8807 22.9999 11.5C22.9999 10.1193 24.1191 9 25.4999 9C26.8806 9 27.9999 10.1193 27.9999 11.5Z"
        fill="#6E7C98"/>
</svg>
