<svg width="40" height="40" viewBox="0 0 40 40" fill="none" xmlns="http://www.w3.org/2000/svg">
  <path fill-rule="evenodd" clip-rule="evenodd"
        d="M8 12V25C8 26.1046 8.89543 27 10 27H11V28C11 29.1046 11.8954 30 13 30H30C31.1046 30 32 29.1046 32 28V15C32 13.8954 31.1046 13 30 13H29V12C29 10.8954 28.1046 10 27 10H10C8.89543 10 8 10.8954 8 12ZM12 28V27H27C28.1046 27 29 26.1046 29 25V14H30C30.5523 14 31 14.4477 31 15V28C31 28.5523 30.5523 29 30 29H13C12.4477 29 12 28.5523 12 28ZM28 13V14V25C28 25.5523 27.5523 26 27 26L12 26H11H10C9.44771 26 9 25.5523 9 25L9 23.5H25C25.2761 23.5 25.5 23.2761 25.5 23C25.5 22.7239 25.2761 22.5 25 22.5H23.5V14C23.5 13.7239 23.2761 13.5 23 13.5C22.7239 13.5 22.5 13.7239 22.5 14V22.5H20.5V20.5C20.5 20.2239 20.2761 20 20 20C19.7239 20 19.5 20.2239 19.5 20.5V22.5H17.5V18.5C17.5 18.2239 17.2761 18 17 18C16.7239 18 16.5 18.2239 16.5 18.5V22.5H14.5V16.5C14.5 16.2239 14.2761 16 14 16C13.7239 16 13.5 16.2239 13.5 16.5V22.5H12V20.5C12 20.2239 11.7761 20 11.5 20C11.2239 20 11 20.2239 11 20.5V22.5H9L9 12C9 11.4477 9.44771 11 10 11L27 11C27.5523 11 28 11.4477 28 12V13Z"
        fill="#6E7C98"/>
</svg>
